<?xml version="1.0" encoding="utf-8" standalone="no"?>
<!DOCTYPE svg PUBLIC "-//W3C//DTD SVG 1.1//EN"
  "http://www.w3.org/Graphics/SVG/1.1/DTD/svg11.dtd">
<!-- Created with matplotlib (https://matplotlib.org/) -->
<svg height="288pt" version="1.1" viewBox="0 0 720 288" width="720pt" xmlns="http://www.w3.org/2000/svg" xmlns:xlink="http://www.w3.org/1999/xlink">
 <metadata>
  <rdf:RDF xmlns:cc="http://creativecommons.org/ns#" xmlns:dc="http://purl.org/dc/elements/1.1/" xmlns:rdf="http://www.w3.org/1999/02/22-rdf-syntax-ns#">
   <cc:Work>
    <dc:type rdf:resource="http://purl.org/dc/dcmitype/StillImage"/>
    <dc:date>2021-04-20T13:23:35.072726</dc:date>
    <dc:format>image/svg+xml</dc:format>
    <dc:creator>
     <cc:Agent>
      <dc:title>Matplotlib v3.3.2, https://matplotlib.org/</dc:title>
     </cc:Agent>
    </dc:creator>
   </cc:Work>
  </rdf:RDF>
 </metadata>
 <defs>
  <style type="text/css">*{stroke-linecap:butt;stroke-linejoin:round;}</style>
 </defs>
 <g id="figure_1">
  <g id="patch_1">
   <path d="M 0 288 
L 720 288 
L 720 0 
L 0 0 
z
" style="fill:none;"/>
  </g>
  <g id="axes_1">
   <g id="patch_2">
    <path d="M 90 252 
L 648 252 
L 648 34.56 
L 90 34.56 
z
" style="fill:#ffffff;"/>
   </g>
   <g id="matplotlib.axis_1">
    <g id="xtick_1">
     <g id="line2d_1">
      <defs>
       <path d="M 0 0 
L 0 3.5 
" id="m018ac23260" style="stroke:#000000;stroke-width:0.8;"/>
      </defs>
      <g>
       <use style="stroke:#000000;stroke-width:0.8;" x="90" xlink:href="#m018ac23260" y="252"/>
      </g>
     </g>
    </g>
    <g id="xtick_2">
     <g id="line2d_2">
      <g>
       <use style="stroke:#000000;stroke-width:0.8;" x="648" xlink:href="#m018ac23260" y="252"/>
      </g>
     </g>
    </g>
    <g id="xtick_3">
     <g id="line2d_3">
      <defs>
       <path d="M 0 0 
L 0 2 
" id="m6b1bf41352" style="stroke:#000000;stroke-width:0.6;"/>
      </defs>
      <g>
       <use style="stroke:#000000;stroke-width:0.6;" x="112.37594" xlink:href="#m6b1bf41352" y="252"/>
      </g>
     </g>
     <g id="text_1">
      <!-- 15 -->
      <g transform="translate(106.01344 264.998438)scale(0.1 -0.1)">
       <defs>
        <path d="M 12.40625 8.296875 
L 28.515625 8.296875 
L 28.515625 63.921875 
L 10.984375 60.40625 
L 10.984375 69.390625 
L 28.421875 72.90625 
L 38.28125 72.90625 
L 38.28125 8.296875 
L 54.390625 8.296875 
L 54.390625 0 
L 12.40625 0 
z
" id="DejaVuSans-49"/>
        <path d="M 10.796875 72.90625 
L 49.515625 72.90625 
L 49.515625 64.59375 
L 19.828125 64.59375 
L 19.828125 46.734375 
Q 21.96875 47.46875 24.109375 47.828125 
Q 26.265625 48.1875 28.421875 48.1875 
Q 40.625 48.1875 47.75 41.5 
Q 54.890625 34.8125 54.890625 23.390625 
Q 54.890625 11.625 47.5625 5.09375 
Q 40.234375 -1.421875 26.90625 -1.421875 
Q 22.3125 -1.421875 17.546875 -0.640625 
Q 12.796875 0.140625 7.71875 1.703125 
L 7.71875 11.625 
Q 12.109375 9.234375 16.796875 8.0625 
Q 21.484375 6.890625 26.703125 6.890625 
Q 35.15625 6.890625 40.078125 11.328125 
Q 45.015625 15.765625 45.015625 23.390625 
Q 45.015625 31 40.078125 35.4375 
Q 35.15625 39.890625 26.703125 39.890625 
Q 22.75 39.890625 18.8125 39.015625 
Q 14.890625 38.140625 10.796875 36.28125 
z
" id="DejaVuSans-53"/>
       </defs>
       <use xlink:href="#DejaVuSans-49"/>
       <use x="63.623047" xlink:href="#DejaVuSans-53"/>
      </g>
      <!-- Jun -->
      <g transform="translate(104.56344 276.19625)scale(0.1 -0.1)">
       <defs>
        <path d="M 9.8125 72.90625 
L 19.671875 72.90625 
L 19.671875 5.078125 
Q 19.671875 -8.109375 14.671875 -14.0625 
Q 9.671875 -20.015625 -1.421875 -20.015625 
L -5.171875 -20.015625 
L -5.171875 -11.71875 
L -2.09375 -11.71875 
Q 4.4375 -11.71875 7.125 -8.046875 
Q 9.8125 -4.390625 9.8125 5.078125 
z
" id="DejaVuSans-74"/>
        <path d="M 8.5 21.578125 
L 8.5 54.6875 
L 17.484375 54.6875 
L 17.484375 21.921875 
Q 17.484375 14.15625 20.5 10.265625 
Q 23.53125 6.390625 29.59375 6.390625 
Q 36.859375 6.390625 41.078125 11.03125 
Q 45.3125 15.671875 45.3125 23.6875 
L 45.3125 54.6875 
L 54.296875 54.6875 
L 54.296875 0 
L 45.3125 0 
L 45.3125 8.40625 
Q 42.046875 3.421875 37.71875 1 
Q 33.40625 -1.421875 27.6875 -1.421875 
Q 18.265625 -1.421875 13.375 4.4375 
Q 8.5 10.296875 8.5 21.578125 
z
M 31.109375 56 
z
" id="DejaVuSans-117"/>
        <path d="M 54.890625 33.015625 
L 54.890625 0 
L 45.90625 0 
L 45.90625 32.71875 
Q 45.90625 40.484375 42.875 44.328125 
Q 39.84375 48.1875 33.796875 48.1875 
Q 26.515625 48.1875 22.3125 43.546875 
Q 18.109375 38.921875 18.109375 30.90625 
L 18.109375 0 
L 9.078125 0 
L 9.078125 54.6875 
L 18.109375 54.6875 
L 18.109375 46.1875 
Q 21.34375 51.125 25.703125 53.5625 
Q 30.078125 56 35.796875 56 
Q 45.21875 56 50.046875 50.171875 
Q 54.890625 44.34375 54.890625 33.015625 
z
" id="DejaVuSans-110"/>
       </defs>
       <use xlink:href="#DejaVuSans-74"/>
       <use x="29.492188" xlink:href="#DejaVuSans-117"/>
       <use x="92.871094" xlink:href="#DejaVuSans-110"/>
      </g>
      <!-- 2018 -->
      <g transform="translate(99.65094 287.394063)scale(0.1 -0.1)">
       <defs>
        <path d="M 19.1875 8.296875 
L 53.609375 8.296875 
L 53.609375 0 
L 7.328125 0 
L 7.328125 8.296875 
Q 12.9375 14.109375 22.625 23.890625 
Q 32.328125 33.6875 34.8125 36.53125 
Q 39.546875 41.84375 41.421875 45.53125 
Q 43.3125 49.21875 43.3125 52.78125 
Q 43.3125 58.59375 39.234375 62.25 
Q 35.15625 65.921875 28.609375 65.921875 
Q 23.96875 65.921875 18.8125 64.3125 
Q 13.671875 62.703125 7.8125 59.421875 
L 7.8125 69.390625 
Q 13.765625 71.78125 18.9375 73 
Q 24.125 74.21875 28.421875 74.21875 
Q 39.75 74.21875 46.484375 68.546875 
Q 53.21875 62.890625 53.21875 53.421875 
Q 53.21875 48.921875 51.53125 44.890625 
Q 49.859375 40.875 45.40625 35.40625 
Q 44.1875 33.984375 37.640625 27.21875 
Q 31.109375 20.453125 19.1875 8.296875 
z
" id="DejaVuSans-50"/>
        <path d="M 31.78125 66.40625 
Q 24.171875 66.40625 20.328125 58.90625 
Q 16.5 51.421875 16.5 36.375 
Q 16.5 21.390625 20.328125 13.890625 
Q 24.171875 6.390625 31.78125 6.390625 
Q 39.453125 6.390625 43.28125 13.890625 
Q 47.125 21.390625 47.125 36.375 
Q 47.125 51.421875 43.28125 58.90625 
Q 39.453125 66.40625 31.78125 66.40625 
z
M 31.78125 74.21875 
Q 44.046875 74.21875 50.515625 64.515625 
Q 56.984375 54.828125 56.984375 36.375 
Q 56.984375 17.96875 50.515625 8.265625 
Q 44.046875 -1.421875 31.78125 -1.421875 
Q 19.53125 -1.421875 13.0625 8.265625 
Q 6.59375 17.96875 6.59375 36.375 
Q 6.59375 54.828125 13.0625 64.515625 
Q 19.53125 74.21875 31.78125 74.21875 
z
" id="DejaVuSans-48"/>
        <path d="M 31.78125 34.625 
Q 24.75 34.625 20.71875 30.859375 
Q 16.703125 27.09375 16.703125 20.515625 
Q 16.703125 13.921875 20.71875 10.15625 
Q 24.75 6.390625 31.78125 6.390625 
Q 38.8125 6.390625 42.859375 10.171875 
Q 46.921875 13.96875 46.921875 20.515625 
Q 46.921875 27.09375 42.890625 30.859375 
Q 38.875 34.625 31.78125 34.625 
z
M 21.921875 38.8125 
Q 15.578125 40.375 12.03125 44.71875 
Q 8.5 49.078125 8.5 55.328125 
Q 8.5 64.0625 14.71875 69.140625 
Q 20.953125 74.21875 31.78125 74.21875 
Q 42.671875 74.21875 48.875 69.140625 
Q 55.078125 64.0625 55.078125 55.328125 
Q 55.078125 49.078125 51.53125 44.71875 
Q 48 40.375 41.703125 38.8125 
Q 48.828125 37.15625 52.796875 32.3125 
Q 56.78125 27.484375 56.78125 20.515625 
Q 56.78125 9.90625 50.3125 4.234375 
Q 43.84375 -1.421875 31.78125 -1.421875 
Q 19.734375 -1.421875 13.25 4.234375 
Q 6.78125 9.90625 6.78125 20.515625 
Q 6.78125 27.484375 10.78125 32.3125 
Q 14.796875 37.15625 21.921875 38.8125 
z
M 18.3125 54.390625 
Q 18.3125 48.734375 21.84375 45.5625 
Q 25.390625 42.390625 31.78125 42.390625 
Q 38.140625 42.390625 41.71875 45.5625 
Q 45.3125 48.734375 45.3125 54.390625 
Q 45.3125 60.0625 41.71875 63.234375 
Q 38.140625 66.40625 31.78125 66.40625 
Q 25.390625 66.40625 21.84375 63.234375 
Q 18.3125 60.0625 18.3125 54.390625 
z
" id="DejaVuSans-56"/>
       </defs>
       <use xlink:href="#DejaVuSans-50"/>
       <use x="63.623047" xlink:href="#DejaVuSans-48"/>
       <use x="127.246094" xlink:href="#DejaVuSans-49"/>
       <use x="190.869141" xlink:href="#DejaVuSans-56"/>
      </g>
     </g>
    </g>
    <g id="xtick_4">
     <g id="line2d_4">
      <g>
       <use style="stroke:#000000;stroke-width:0.6;" x="145.93985" xlink:href="#m6b1bf41352" y="252"/>
      </g>
     </g>
     <g id="text_2">
      <!-- 16 -->
      <g transform="translate(139.57735 264.998438)scale(0.1 -0.1)">
       <defs>
        <path d="M 33.015625 40.375 
Q 26.375 40.375 22.484375 35.828125 
Q 18.609375 31.296875 18.609375 23.390625 
Q 18.609375 15.53125 22.484375 10.953125 
Q 26.375 6.390625 33.015625 6.390625 
Q 39.65625 6.390625 43.53125 10.953125 
Q 47.40625 15.53125 47.40625 23.390625 
Q 47.40625 31.296875 43.53125 35.828125 
Q 39.65625 40.375 33.015625 40.375 
z
M 52.59375 71.296875 
L 52.59375 62.3125 
Q 48.875 64.0625 45.09375 64.984375 
Q 41.3125 65.921875 37.59375 65.921875 
Q 27.828125 65.921875 22.671875 59.328125 
Q 17.53125 52.734375 16.796875 39.40625 
Q 19.671875 43.65625 24.015625 45.921875 
Q 28.375 48.1875 33.59375 48.1875 
Q 44.578125 48.1875 50.953125 41.515625 
Q 57.328125 34.859375 57.328125 23.390625 
Q 57.328125 12.15625 50.6875 5.359375 
Q 44.046875 -1.421875 33.015625 -1.421875 
Q 20.359375 -1.421875 13.671875 8.265625 
Q 6.984375 17.96875 6.984375 36.375 
Q 6.984375 53.65625 15.1875 63.9375 
Q 23.390625 74.21875 37.203125 74.21875 
Q 40.921875 74.21875 44.703125 73.484375 
Q 48.484375 72.75 52.59375 71.296875 
z
" id="DejaVuSans-54"/>
       </defs>
       <use xlink:href="#DejaVuSans-49"/>
       <use x="63.623047" xlink:href="#DejaVuSans-54"/>
      </g>
     </g>
    </g>
    <g id="xtick_5">
     <g id="line2d_5">
      <g>
       <use style="stroke:#000000;stroke-width:0.6;" x="179.503759" xlink:href="#m6b1bf41352" y="252"/>
      </g>
     </g>
     <g id="text_3">
      <!-- 17 -->
      <g transform="translate(173.141259 264.998438)scale(0.1 -0.1)">
       <defs>
        <path d="M 8.203125 72.90625 
L 55.078125 72.90625 
L 55.078125 68.703125 
L 28.609375 0 
L 18.3125 0 
L 43.21875 64.59375 
L 8.203125 64.59375 
z
" id="DejaVuSans-55"/>
       </defs>
       <use xlink:href="#DejaVuSans-49"/>
       <use x="63.623047" xlink:href="#DejaVuSans-55"/>
      </g>
     </g>
    </g>
    <g id="xtick_6">
     <g id="line2d_6">
      <g>
       <use style="stroke:#000000;stroke-width:0.6;" x="213.067669" xlink:href="#m6b1bf41352" y="252"/>
      </g>
     </g>
     <g id="text_4">
      <!-- 18 -->
      <g transform="translate(206.705169 264.998438)scale(0.1 -0.1)">
       <use xlink:href="#DejaVuSans-49"/>
       <use x="63.623047" xlink:href="#DejaVuSans-56"/>
      </g>
     </g>
    </g>
    <g id="xtick_7">
     <g id="line2d_7">
      <g>
       <use style="stroke:#000000;stroke-width:0.6;" x="246.631579" xlink:href="#m6b1bf41352" y="252"/>
      </g>
     </g>
     <g id="text_5">
      <!-- 19 -->
      <g transform="translate(240.269079 264.998438)scale(0.1 -0.1)">
       <defs>
        <path d="M 10.984375 1.515625 
L 10.984375 10.5 
Q 14.703125 8.734375 18.5 7.8125 
Q 22.3125 6.890625 25.984375 6.890625 
Q 35.75 6.890625 40.890625 13.453125 
Q 46.046875 20.015625 46.78125 33.40625 
Q 43.953125 29.203125 39.59375 26.953125 
Q 35.25 24.703125 29.984375 24.703125 
Q 19.046875 24.703125 12.671875 31.3125 
Q 6.296875 37.9375 6.296875 49.421875 
Q 6.296875 60.640625 12.9375 67.421875 
Q 19.578125 74.21875 30.609375 74.21875 
Q 43.265625 74.21875 49.921875 64.515625 
Q 56.59375 54.828125 56.59375 36.375 
Q 56.59375 19.140625 48.40625 8.859375 
Q 40.234375 -1.421875 26.421875 -1.421875 
Q 22.703125 -1.421875 18.890625 -0.6875 
Q 15.09375 0.046875 10.984375 1.515625 
z
M 30.609375 32.421875 
Q 37.25 32.421875 41.125 36.953125 
Q 45.015625 41.5 45.015625 49.421875 
Q 45.015625 57.28125 41.125 61.84375 
Q 37.25 66.40625 30.609375 66.40625 
Q 23.96875 66.40625 20.09375 61.84375 
Q 16.21875 57.28125 16.21875 49.421875 
Q 16.21875 41.5 20.09375 36.953125 
Q 23.96875 32.421875 30.609375 32.421875 
z
" id="DejaVuSans-57"/>
       </defs>
       <use xlink:href="#DejaVuSans-49"/>
       <use x="63.623047" xlink:href="#DejaVuSans-57"/>
      </g>
     </g>
    </g>
    <g id="xtick_8">
     <g id="line2d_8">
      <g>
       <use style="stroke:#000000;stroke-width:0.6;" x="280.195489" xlink:href="#m6b1bf41352" y="252"/>
      </g>
     </g>
     <g id="text_6">
      <!-- 20 -->
      <g transform="translate(273.832989 264.998438)scale(0.1 -0.1)">
       <use xlink:href="#DejaVuSans-50"/>
       <use x="63.623047" xlink:href="#DejaVuSans-48"/>
      </g>
     </g>
    </g>
    <g id="xtick_9">
     <g id="line2d_9">
      <g>
       <use style="stroke:#000000;stroke-width:0.6;" x="313.759398" xlink:href="#m6b1bf41352" y="252"/>
      </g>
     </g>
     <g id="text_7">
      <!-- 21 -->
      <g transform="translate(307.396898 264.998438)scale(0.1 -0.1)">
       <use xlink:href="#DejaVuSans-50"/>
       <use x="63.623047" xlink:href="#DejaVuSans-49"/>
      </g>
     </g>
    </g>
    <g id="xtick_10">
     <g id="line2d_10">
      <g>
       <use style="stroke:#000000;stroke-width:0.6;" x="347.323308" xlink:href="#m6b1bf41352" y="252"/>
      </g>
     </g>
     <g id="text_8">
      <!-- 22 -->
      <g transform="translate(340.960808 264.998438)scale(0.1 -0.1)">
       <use xlink:href="#DejaVuSans-50"/>
       <use x="63.623047" xlink:href="#DejaVuSans-50"/>
      </g>
     </g>
    </g>
    <g id="xtick_11">
     <g id="line2d_11">
      <g>
       <use style="stroke:#000000;stroke-width:0.6;" x="380.887218" xlink:href="#m6b1bf41352" y="252"/>
      </g>
     </g>
     <g id="text_9">
      <!-- 23 -->
      <g transform="translate(374.524718 264.998438)scale(0.1 -0.1)">
       <defs>
        <path d="M 40.578125 39.3125 
Q 47.65625 37.796875 51.625 33 
Q 55.609375 28.21875 55.609375 21.1875 
Q 55.609375 10.40625 48.1875 4.484375 
Q 40.765625 -1.421875 27.09375 -1.421875 
Q 22.515625 -1.421875 17.65625 -0.515625 
Q 12.796875 0.390625 7.625 2.203125 
L 7.625 11.71875 
Q 11.71875 9.328125 16.59375 8.109375 
Q 21.484375 6.890625 26.8125 6.890625 
Q 36.078125 6.890625 40.9375 10.546875 
Q 45.796875 14.203125 45.796875 21.1875 
Q 45.796875 27.640625 41.28125 31.265625 
Q 36.765625 34.90625 28.71875 34.90625 
L 20.21875 34.90625 
L 20.21875 43.015625 
L 29.109375 43.015625 
Q 36.375 43.015625 40.234375 45.921875 
Q 44.09375 48.828125 44.09375 54.296875 
Q 44.09375 59.90625 40.109375 62.90625 
Q 36.140625 65.921875 28.71875 65.921875 
Q 24.65625 65.921875 20.015625 65.03125 
Q 15.375 64.15625 9.8125 62.3125 
L 9.8125 71.09375 
Q 15.4375 72.65625 20.34375 73.4375 
Q 25.25 74.21875 29.59375 74.21875 
Q 40.828125 74.21875 47.359375 69.109375 
Q 53.90625 64.015625 53.90625 55.328125 
Q 53.90625 49.265625 50.4375 45.09375 
Q 46.96875 40.921875 40.578125 39.3125 
z
" id="DejaVuSans-51"/>
       </defs>
       <use xlink:href="#DejaVuSans-50"/>
       <use x="63.623047" xlink:href="#DejaVuSans-51"/>
      </g>
     </g>
    </g>
    <g id="xtick_12">
     <g id="line2d_12">
      <g>
       <use style="stroke:#000000;stroke-width:0.6;" x="414.451128" xlink:href="#m6b1bf41352" y="252"/>
      </g>
     </g>
     <g id="text_10">
      <!-- 24 -->
      <g transform="translate(408.088628 264.998438)scale(0.1 -0.1)">
       <defs>
        <path d="M 37.796875 64.3125 
L 12.890625 25.390625 
L 37.796875 25.390625 
z
M 35.203125 72.90625 
L 47.609375 72.90625 
L 47.609375 25.390625 
L 58.015625 25.390625 
L 58.015625 17.1875 
L 47.609375 17.1875 
L 47.609375 0 
L 37.796875 0 
L 37.796875 17.1875 
L 4.890625 17.1875 
L 4.890625 26.703125 
z
" id="DejaVuSans-52"/>
       </defs>
       <use xlink:href="#DejaVuSans-50"/>
       <use x="63.623047" xlink:href="#DejaVuSans-52"/>
      </g>
     </g>
    </g>
    <g id="xtick_13">
     <g id="line2d_13">
      <g>
       <use style="stroke:#000000;stroke-width:0.6;" x="448.015038" xlink:href="#m6b1bf41352" y="252"/>
      </g>
     </g>
     <g id="text_11">
      <!-- 25 -->
      <g transform="translate(441.652538 264.998438)scale(0.1 -0.1)">
       <use xlink:href="#DejaVuSans-50"/>
       <use x="63.623047" xlink:href="#DejaVuSans-53"/>
      </g>
     </g>
    </g>
    <g id="xtick_14">
     <g id="line2d_14">
      <g>
       <use style="stroke:#000000;stroke-width:0.6;" x="481.578947" xlink:href="#m6b1bf41352" y="252"/>
      </g>
     </g>
     <g id="text_12">
      <!-- 26 -->
      <g transform="translate(475.216447 264.998438)scale(0.1 -0.1)">
       <use xlink:href="#DejaVuSans-50"/>
       <use x="63.623047" xlink:href="#DejaVuSans-54"/>
      </g>
     </g>
    </g>
    <g id="xtick_15">
     <g id="line2d_15">
      <g>
       <use style="stroke:#000000;stroke-width:0.6;" x="515.142857" xlink:href="#m6b1bf41352" y="252"/>
      </g>
     </g>
     <g id="text_13">
      <!-- 27 -->
      <g transform="translate(508.780357 264.998438)scale(0.1 -0.1)">
       <use xlink:href="#DejaVuSans-50"/>
       <use x="63.623047" xlink:href="#DejaVuSans-55"/>
      </g>
     </g>
    </g>
    <g id="xtick_16">
     <g id="line2d_16">
      <g>
       <use style="stroke:#000000;stroke-width:0.6;" x="548.706767" xlink:href="#m6b1bf41352" y="252"/>
      </g>
     </g>
     <g id="text_14">
      <!-- 28 -->
      <g transform="translate(542.344267 264.998438)scale(0.1 -0.1)">
       <use xlink:href="#DejaVuSans-50"/>
       <use x="63.623047" xlink:href="#DejaVuSans-56"/>
      </g>
     </g>
    </g>
    <g id="xtick_17">
     <g id="line2d_17">
      <g>
       <use style="stroke:#000000;stroke-width:0.6;" x="582.270677" xlink:href="#m6b1bf41352" y="252"/>
      </g>
     </g>
     <g id="text_15">
      <!-- 29 -->
      <g transform="translate(575.908177 264.998438)scale(0.1 -0.1)">
       <use xlink:href="#DejaVuSans-50"/>
       <use x="63.623047" xlink:href="#DejaVuSans-57"/>
      </g>
     </g>
    </g>
    <g id="xtick_18">
     <g id="line2d_18">
      <g>
       <use style="stroke:#000000;stroke-width:0.6;" x="615.834586" xlink:href="#m6b1bf41352" y="252"/>
      </g>
     </g>
     <g id="text_16">
      <!-- 30 -->
      <g transform="translate(609.472086 264.998438)scale(0.1 -0.1)">
       <use xlink:href="#DejaVuSans-51"/>
       <use x="63.623047" xlink:href="#DejaVuSans-48"/>
      </g>
     </g>
    </g>
    <g id="text_17">
     <!-- time -->
     <g transform="translate(357.703906 301.072187)scale(0.1 -0.1)">
      <defs>
       <path d="M 18.3125 70.21875 
L 18.3125 54.6875 
L 36.8125 54.6875 
L 36.8125 47.703125 
L 18.3125 47.703125 
L 18.3125 18.015625 
Q 18.3125 11.328125 20.140625 9.421875 
Q 21.96875 7.515625 27.59375 7.515625 
L 36.8125 7.515625 
L 36.8125 0 
L 27.59375 0 
Q 17.1875 0 13.234375 3.875 
Q 9.28125 7.765625 9.28125 18.015625 
L 9.28125 47.703125 
L 2.6875 47.703125 
L 2.6875 54.6875 
L 9.28125 54.6875 
L 9.28125 70.21875 
z
" id="DejaVuSans-116"/>
       <path d="M 9.421875 54.6875 
L 18.40625 54.6875 
L 18.40625 0 
L 9.421875 0 
z
M 9.421875 75.984375 
L 18.40625 75.984375 
L 18.40625 64.59375 
L 9.421875 64.59375 
z
" id="DejaVuSans-105"/>
       <path d="M 52 44.1875 
Q 55.375 50.25 60.0625 53.125 
Q 64.75 56 71.09375 56 
Q 79.640625 56 84.28125 50.015625 
Q 88.921875 44.046875 88.921875 33.015625 
L 88.921875 0 
L 79.890625 0 
L 79.890625 32.71875 
Q 79.890625 40.578125 77.09375 44.375 
Q 74.3125 48.1875 68.609375 48.1875 
Q 61.625 48.1875 57.5625 43.546875 
Q 53.515625 38.921875 53.515625 30.90625 
L 53.515625 0 
L 44.484375 0 
L 44.484375 32.71875 
Q 44.484375 40.625 41.703125 44.40625 
Q 38.921875 48.1875 33.109375 48.1875 
Q 26.21875 48.1875 22.15625 43.53125 
Q 18.109375 38.875 18.109375 30.90625 
L 18.109375 0 
L 9.078125 0 
L 9.078125 54.6875 
L 18.109375 54.6875 
L 18.109375 46.1875 
Q 21.1875 51.21875 25.484375 53.609375 
Q 29.78125 56 35.6875 56 
Q 41.65625 56 45.828125 52.96875 
Q 50 49.953125 52 44.1875 
z
" id="DejaVuSans-109"/>
       <path d="M 56.203125 29.59375 
L 56.203125 25.203125 
L 14.890625 25.203125 
Q 15.484375 15.921875 20.484375 11.0625 
Q 25.484375 6.203125 34.421875 6.203125 
Q 39.59375 6.203125 44.453125 7.46875 
Q 49.3125 8.734375 54.109375 11.28125 
L 54.109375 2.78125 
Q 49.265625 0.734375 44.1875 -0.34375 
Q 39.109375 -1.421875 33.890625 -1.421875 
Q 20.796875 -1.421875 13.15625 6.1875 
Q 5.515625 13.8125 5.515625 26.8125 
Q 5.515625 40.234375 12.765625 48.109375 
Q 20.015625 56 32.328125 56 
Q 43.359375 56 49.78125 48.890625 
Q 56.203125 41.796875 56.203125 29.59375 
z
M 47.21875 32.234375 
Q 47.125 39.59375 43.09375 43.984375 
Q 39.0625 48.390625 32.421875 48.390625 
Q 24.90625 48.390625 20.390625 44.140625 
Q 15.875 39.890625 15.1875 32.171875 
z
" id="DejaVuSans-101"/>
      </defs>
      <use xlink:href="#DejaVuSans-116"/>
      <use x="39.208984" xlink:href="#DejaVuSans-105"/>
      <use x="66.992188" xlink:href="#DejaVuSans-109"/>
      <use x="164.404297" xlink:href="#DejaVuSans-101"/>
     </g>
    </g>
   </g>
   <g id="matplotlib.axis_2">
    <g id="ytick_1">
     <g id="line2d_19">
      <defs>
       <path d="M 0 0 
L -3.5 0 
" id="m83c6673644" style="stroke:#000000;stroke-width:0.8;"/>
      </defs>
      <g>
       <use style="stroke:#000000;stroke-width:0.8;" x="90" xlink:href="#m83c6673644" y="222.589676"/>
      </g>
     </g>
     <g id="text_18">
      <!-- 20 -->
      <g transform="translate(70.275 226.388895)scale(0.1 -0.1)">
       <use xlink:href="#DejaVuSans-50"/>
       <use x="63.623047" xlink:href="#DejaVuSans-48"/>
      </g>
     </g>
    </g>
    <g id="ytick_2">
     <g id="line2d_20">
      <g>
       <use style="stroke:#000000;stroke-width:0.8;" x="90" xlink:href="#m83c6673644" y="177.451703"/>
      </g>
     </g>
     <g id="text_19">
      <!-- 30 -->
      <g transform="translate(70.275 181.250922)scale(0.1 -0.1)">
       <use xlink:href="#DejaVuSans-51"/>
       <use x="63.623047" xlink:href="#DejaVuSans-48"/>
      </g>
     </g>
    </g>
    <g id="ytick_3">
     <g id="line2d_21">
      <g>
       <use style="stroke:#000000;stroke-width:0.8;" x="90" xlink:href="#m83c6673644" y="132.313729"/>
      </g>
     </g>
     <g id="text_20">
      <!-- 40 -->
      <g transform="translate(70.275 136.112948)scale(0.1 -0.1)">
       <use xlink:href="#DejaVuSans-52"/>
       <use x="63.623047" xlink:href="#DejaVuSans-48"/>
      </g>
     </g>
    </g>
    <g id="ytick_4">
     <g id="line2d_22">
      <g>
       <use style="stroke:#000000;stroke-width:0.8;" x="90" xlink:href="#m83c6673644" y="87.175756"/>
      </g>
     </g>
     <g id="text_21">
      <!-- 50 -->
      <g transform="translate(70.275 90.974975)scale(0.1 -0.1)">
       <use xlink:href="#DejaVuSans-53"/>
       <use x="63.623047" xlink:href="#DejaVuSans-48"/>
      </g>
     </g>
    </g>
    <g id="ytick_5">
     <g id="line2d_23">
      <g>
       <use style="stroke:#000000;stroke-width:0.8;" x="90" xlink:href="#m83c6673644" y="42.037782"/>
      </g>
     </g>
     <g id="text_22">
      <!-- 60 -->
      <g transform="translate(70.275 45.837001)scale(0.1 -0.1)">
       <use xlink:href="#DejaVuSans-54"/>
       <use x="63.623047" xlink:href="#DejaVuSans-48"/>
      </g>
     </g>
    </g>
    <g id="text_23">
     <!-- value -->
     <g transform="translate(64.195312 156.937813)rotate(-90)scale(0.1 -0.1)">
      <defs>
       <path d="M 2.984375 54.6875 
L 12.5 54.6875 
L 29.59375 8.796875 
L 46.6875 54.6875 
L 56.203125 54.6875 
L 35.6875 0 
L 23.484375 0 
z
" id="DejaVuSans-118"/>
       <path d="M 34.28125 27.484375 
Q 23.390625 27.484375 19.1875 25 
Q 14.984375 22.515625 14.984375 16.5 
Q 14.984375 11.71875 18.140625 8.90625 
Q 21.296875 6.109375 26.703125 6.109375 
Q 34.1875 6.109375 38.703125 11.40625 
Q 43.21875 16.703125 43.21875 25.484375 
L 43.21875 27.484375 
z
M 52.203125 31.203125 
L 52.203125 0 
L 43.21875 0 
L 43.21875 8.296875 
Q 40.140625 3.328125 35.546875 0.953125 
Q 30.953125 -1.421875 24.3125 -1.421875 
Q 15.921875 -1.421875 10.953125 3.296875 
Q 6 8.015625 6 15.921875 
Q 6 25.140625 12.171875 29.828125 
Q 18.359375 34.515625 30.609375 34.515625 
L 43.21875 34.515625 
L 43.21875 35.40625 
Q 43.21875 41.609375 39.140625 45 
Q 35.0625 48.390625 27.6875 48.390625 
Q 23 48.390625 18.546875 47.265625 
Q 14.109375 46.140625 10.015625 43.890625 
L 10.015625 52.203125 
Q 14.9375 54.109375 19.578125 55.046875 
Q 24.21875 56 28.609375 56 
Q 40.484375 56 46.34375 49.84375 
Q 52.203125 43.703125 52.203125 31.203125 
z
" id="DejaVuSans-97"/>
       <path d="M 9.421875 75.984375 
L 18.40625 75.984375 
L 18.40625 0 
L 9.421875 0 
z
" id="DejaVuSans-108"/>
      </defs>
      <use xlink:href="#DejaVuSans-118"/>
      <use x="59.179688" xlink:href="#DejaVuSans-97"/>
      <use x="120.458984" xlink:href="#DejaVuSans-108"/>
      <use x="148.242188" xlink:href="#DejaVuSans-117"/>
      <use x="211.621094" xlink:href="#DejaVuSans-101"/>
     </g>
    </g>
   </g>
   <g id="line2d_24">
    <path clip-path="url(#pd0ed2c14a0)" d="M 90 140.614603 
L 91.398496 107.384027 
L 92.796992 92.073226 
L 94.195489 96.952641 
L 95.593985 97.178331 
L 96.992481 102.057746 
L 98.390977 111.694703 
L 99.789474 96.153699 
L 101.18797 97.972759 
L 103.984962 141.634721 
L 105.383459 177.474272 
L 106.781955 229.527383 
L 108.180451 232.023513 
L 109.578947 232.817941 
L 110.977444 233.156476 
L 112.37594 234.627974 
L 113.774436 232.592251 
L 115.172932 236.898414 
L 116.571429 231.229084 
L 117.969925 236.447034 
L 119.368421 238.487271 
L 120.766917 235.765451 
L 124.962406 116.461273 
L 127.759398 85.158088 
L 129.157895 82.436269 
L 130.556391 87.649705 
L 131.954887 78.351282 
L 133.353383 63.270685 
L 134.75188 76.419377 
L 136.150376 80.964771 
L 137.548872 119.747318 
L 138.947368 138.348676 
L 140.345865 198.905782 
L 141.744361 220.572009 
L 143.142857 226.349669 
L 144.541353 229.301693 
L 145.93985 231.341929 
L 147.338346 226.236825 
L 148.736842 235.765451 
L 150.135338 232.470379 
L 151.533835 234.632488 
L 152.932331 234.519643 
L 155.729323 230.552015 
L 157.12782 232.817941 
L 158.526316 226.349669 
L 159.924812 225.22122 
L 161.323308 229.983276 
L 162.721805 224.535123 
L 164.120301 222.955294 
L 165.518797 222.833421 
L 166.917293 225.442396 
L 168.315789 224.309433 
L 169.714286 225.329551 
L 171.112782 230.552015 
L 172.511278 223.40216 
L 173.909774 227.026739 
L 175.308271 226.575359 
L 176.706767 227.482633 
L 178.105263 230.777705 
L 179.503759 231.229084 
L 180.902256 233.725214 
L 182.300752 234.966509 
L 183.699248 231.906154 
L 185.097744 234.740819 
L 186.496241 229.071489 
L 187.894737 231.797823 
L 189.293233 238.261581 
L 192.090226 214.555117 
L 193.488722 213.873534 
L 194.887218 215.011011 
L 196.285714 216.708198 
L 197.684211 216.369664 
L 199.082707 225.89829 
L 200.481203 234.632488 
L 201.879699 227.712836 
L 203.278195 229.297179 
L 204.676692 231.572133 
L 206.075188 227.938526 
L 207.473684 232.705096 
L 208.87218 233.151962 
L 210.270677 233.725214 
L 211.669173 231.341929 
L 213.067669 235.765451 
L 214.466165 231.341929 
L 215.864662 231.454774 
L 217.263158 233.269321 
L 220.06015 235.765451 
L 221.458647 234.406798 
L 222.857143 225.22122 
L 224.255639 143.557599 
L 225.654135 102.62197 
L 227.052632 103.980623 
L 228.451128 103.07335 
L 229.849624 103.754934 
L 231.24812 111.803034 
L 232.646617 86.521255 
L 234.045113 65.875146 
L 235.443609 83.907767 
L 236.842105 119.521628 
L 238.240602 160.344411 
L 239.639098 172.707702 
L 241.037594 211.494762 
L 242.43609 230.547501 
L 243.834586 227.261457 
L 245.233083 240.301817 
L 246.631579 237.011259 
L 248.030075 239.845924 
L 249.428571 238.374426 
L 250.827068 239.281699 
L 252.225564 240.870556 
L 253.62406 236.103986 
L 255.022556 240.071613 
L 256.421053 187.797326 
L 257.819549 147.308564 
L 259.218045 124.288198 
L 260.616541 104.093468 
L 262.015038 104.441031 
L 263.413534 105.912529 
L 264.81203 112.945025 
L 266.210526 107.609716 
L 267.609023 92.411761 
L 269.007519 86.521255 
L 270.406015 115.549486 
L 271.804511 153.19907 
L 273.203008 169.191454 
L 276 235.314071 
L 277.398496 238.031377 
L 278.796992 239.511903 
L 280.195489 237.688328 
L 281.593985 236.672724 
L 282.992481 241.552139 
L 284.390977 241.321935 
L 285.789474 242.116364 
L 287.18797 240.532021 
L 288.586466 241.88616 
L 289.984962 212.058987 
L 291.383459 155.812558 
L 292.781955 134.26369 
L 294.180451 99.900151 
L 295.578947 104.210827 
L 296.977444 112.489131 
L 298.37594 102.617457 
L 299.774436 81.41615 
L 301.172932 55.105226 
L 303.969925 114.412009 
L 305.368421 140.957651 
L 306.766917 160.913149 
L 308.165414 185.070993 
L 309.56391 200.156103 
L 310.962406 230.777705 
L 312.360902 230.326325 
L 313.759398 233.607856 
L 315.157895 238.71296 
L 316.556391 239.168854 
L 317.954887 236.785569 
L 319.353383 242.116364 
L 320.75188 237.462639 
L 322.150376 234.858178 
L 323.548872 187.792813 
L 324.947368 153.772322 
L 326.345865 129.957527 
L 327.744361 113.734939 
L 329.142857 102.734815 
L 330.541353 107.83992 
L 331.93985 112.146083 
L 333.338346 96.952641 
L 334.736842 86.972635 
L 336.135338 87.884422 
L 337.533835 109.767312 
L 338.932331 134.381049 
L 340.330827 161.824936 
L 341.729323 225.212193 
L 343.12782 226.467028 
L 344.526316 230.768677 
L 345.924812 231.111726 
L 347.323308 233.833546 
L 348.721805 232.705096 
L 350.120301 238.035891 
L 351.518797 226.467028 
L 352.917293 233.838059 
L 354.315789 235.192199 
L 355.714286 232.023513 
L 357.112782 209.91042 
L 358.511278 166.812682 
L 359.909774 145.038124 
L 361.308271 129.614479 
L 362.706767 119.860162 
L 364.105263 124.166325 
L 365.503759 129.158585 
L 366.902256 112.597463 
L 368.300752 106.932647 
L 369.699248 112.83218 
L 371.097744 131.203335 
L 372.496241 145.489504 
L 373.894737 166.695324 
L 375.293233 229.306207 
L 376.691729 232.253716 
L 378.090226 236.555365 
L 379.488722 237.241463 
L 380.887218 237.579997 
L 382.285714 238.825805 
L 383.684211 239.61572 
L 385.082707 237.467152 
L 386.481203 240.640352 
L 387.879699 237.805687 
L 389.278195 240.188972 
L 390.676692 240.301817 
L 392.075188 237.236949 
L 394.87218 235.652606 
L 396.270677 234.063749 
L 397.669173 231.116239 
L 399.067669 233.38668 
L 400.466165 228.051371 
L 401.864662 231.341929 
L 403.263158 232.249203 
L 404.661654 233.38668 
L 406.06015 232.140871 
L 407.458647 233.382166 
L 408.857143 233.950904 
L 410.255639 236.672724 
L 411.654135 237.015773 
L 413.052632 236.44252 
L 414.451128 238.71296 
L 415.849624 239.056009 
L 417.24812 239.845924 
L 418.646617 239.056009 
L 420.045113 239.277185 
L 421.443609 241.890674 
L 422.842105 240.532021 
L 424.240602 238.600116 
L 425.639098 236.329675 
L 427.037594 238.031377 
L 428.43609 238.035891 
L 429.834586 235.535247 
L 431.233083 235.769965 
L 432.631579 234.293953 
L 434.030075 233.273835 
L 435.428571 230.89055 
L 436.827068 229.757586 
L 438.225564 231.797823 
L 439.62406 233.043631 
L 441.022556 234.519643 
L 442.421053 235.088381 
L 443.819549 237.128618 
L 445.218045 237.349794 
L 446.616541 240.414662 
L 448.015038 237.241463 
L 449.413534 239.507389 
L 450.81203 238.604629 
L 452.210526 240.532021 
L 455.007519 241.096245 
L 456.406015 240.757711 
L 457.804511 218.188724 
L 459.203008 142.203459 
L 460.601504 112.258928 
L 462 111.577344 
L 463.398496 119.521628 
L 466.195489 92.52912 
L 467.593985 65.766815 
L 468.992481 60.210331 
L 470.390977 67.576848 
L 471.789474 105.339276 
L 473.18797 133.690438 
L 474.586466 151.276192 
L 475.984962 180.308937 
L 477.383459 205.14385 
L 478.781955 226.918408 
L 480.180451 229.188848 
L 481.578947 229.753073 
L 482.977444 235.201226 
L 484.37594 239.286213 
L 485.774436 234.519643 
L 487.172932 235.878296 
L 488.571429 236.44252 
L 489.969925 237.575484 
L 491.368421 201.401912 
L 492.766917 147.759944 
L 494.165414 117.246674 
L 495.56391 92.867654 
L 496.962406 100.468889 
L 498.360902 94.343666 
L 499.759398 97.291176 
L 501.157895 94.005131 
L 502.556391 87.424015 
L 503.954887 83.91228 
L 505.353383 101.380676 
L 506.75188 143.336422 
L 508.150376 158.304174 
L 509.548872 212.514881 
L 510.947368 220.567495 
L 512.345865 225.216706 
L 513.744361 228.845799 
L 515.142857 228.62011 
L 516.541353 231.90164 
L 517.93985 230.208966 
L 519.338346 231.567619 
L 520.736842 240.184458 
L 522.135338 233.612369 
L 523.533835 235.991141 
L 524.932331 208.998632 
L 526.330827 141.634721 
L 527.729323 98.541498 
L 529.12782 65.987991 
L 530.526316 68.935501 
L 533.323308 93.323548 
L 534.721805 98.428653 
L 536.120301 99.331412 
L 537.518797 89.464251 
L 538.917293 104.206313 
L 540.315789 123.037876 
L 541.714286 139.251436 
L 543.112782 200.950532 
L 544.511278 206.958396 
L 545.909774 213.534999 
L 547.308271 216.938402 
L 548.706767 215.119342 
L 550.105263 222.72509 
L 551.503759 225.329551 
L 552.902256 224.765327 
L 554.300752 225.785445 
L 555.699248 226.241338 
L 557.097744 225.437882 
L 558.496241 210.69582 
L 559.894737 124.175353 
L 561.293233 93.774928 
L 562.691729 86.291052 
L 564.090226 46.714076 
L 565.488722 52.496251 
L 566.887218 65.085232 
L 568.285714 60.426993 
L 569.684211 46.032493 
L 571.082707 44.443636 
L 572.481203 76.541249 
L 573.879699 100.12584 
L 575.278195 134.146331 
L 576.676692 206.619861 
L 578.075188 206.389658 
L 579.473684 210.582975 
L 580.87218 216.712712 
L 582.270677 217.051247 
L 583.669173 215.692594 
L 585.067669 223.289315 
L 586.466165 220.111602 
L 589.263158 225.44691 
L 590.661654 219.890425 
L 592.06015 219.321687 
L 593.458647 159.328806 
L 594.857143 120.993126 
L 596.255639 87.306656 
L 597.654135 85.839672 
L 599.052632 92.411761 
L 600.451128 100.12584 
L 601.849624 67.238313 
L 603.24812 73.246177 
L 604.646617 58.052735 
L 606.045113 89.694455 
L 607.443609 128.255826 
L 608.842105 138.231318 
L 610.240602 202.990768 
L 611.639098 210.131596 
L 613.037594 216.256819 
L 614.43609 224.422278 
L 615.834586 223.970898 
L 617.233083 224.309433 
L 618.631579 222.156352 
L 620.030075 229.188848 
L 621.428571 227.599991 
L 622.827068 227.595478 
L 624.225564 230.091608 
L 625.62406 219.885912 
L 627.022556 180.083247 
L 628.421053 156.719832 
L 629.819549 152.522 
L 631.218045 145.263814 
L 632.616541 142.207973 
L 634.015038 145.828039 
L 635.413534 135.852546 
L 636.81203 140.158709 
L 638.210526 169.651861 
L 639.609023 165.792564 
L 641.007519 174.070869 
L 642.406015 163.860659 
L 643.804511 200.837687 
L 645.203008 204.462266 
L 646.601504 209.793061 
L 648 218.301569 
L 648 218.301569 
" style="fill:none;stroke:#1f77b4;stroke-linecap:square;stroke-width:1.5;"/>
   </g>
   <g id="patch_3">
    <path d="M 90 252 
L 90 34.56 
" style="fill:none;stroke:#000000;stroke-linecap:square;stroke-linejoin:miter;stroke-width:0.8;"/>
   </g>
   <g id="patch_4">
    <path d="M 648 252 
L 648 34.56 
" style="fill:none;stroke:#000000;stroke-linecap:square;stroke-linejoin:miter;stroke-width:0.8;"/>
   </g>
   <g id="patch_5">
    <path d="M 90 252 
L 648 252 
" style="fill:none;stroke:#000000;stroke-linecap:square;stroke-linejoin:miter;stroke-width:0.8;"/>
   </g>
   <g id="patch_6">
    <path d="M 90 34.56 
L 648 34.56 
" style="fill:none;stroke:#000000;stroke-linecap:square;stroke-linejoin:miter;stroke-width:0.8;"/>
   </g>
  </g>
 </g>
 <defs>
  <clipPath id="pd0ed2c14a0">
   <rect height="217.44" width="558" x="90" y="34.56"/>
  </clipPath>
 </defs>
</svg>
